<svg width="1454" height="510" viewBox="0 0 1454 510" fill="none" xmlns="http://www.w3.org/2000/svg">
<g clip-path="url(#clip0_134_5005)">
<rect width="1454" height="510" fill="#EAC0CD"/>
<g filter="url(#filter0_f_134_5005)">
<ellipse cx="166.5" cy="327.5" rx="184.5" ry="131.5" fill="#FF001F" fill-opacity="0.5"/>
</g>
<g filter="url(#filter1_f_134_5005)">
<ellipse cx="1329.5" cy="274.5" rx="196.5" ry="159.5" fill="#5972C9"/>
</g>
<path fill-rule="evenodd" clip-rule="evenodd" d="M0 392L39.985 399.222C81.1817 406.444 161.152 420.889 242.333 413.667C323.515 406.444 403.485 377.556 484.667 377.556C565.848 377.556 645.818 406.444 727 420.889C808.182 435.333 888.152 435.333 969.333 431.722C1050.52 428.111 1130.49 420.889 1211.67 392C1292.85 363.111 1372.82 312.556 1414.02 287.278L1454 262V457H1414.02C1372.82 457 1292.85 457 1211.67 457C1130.49 457 1050.52 457 969.333 457C888.152 457 808.182 457 727 457C645.818 457 565.848 457 484.667 457C403.485 457 323.515 457 242.333 457C161.152 457 81.1817 457 39.985 457H0V392Z" fill="white" fill-opacity="0.2"/>
<path fill-rule="evenodd" clip-rule="evenodd" d="M0 243L60.5833 267C121.167 291 242.333 339 363.5 369C484.667 399 605.833 411 727 375C848.167 339 969.333 255 1090.5 249C1211.67 243 1332.83 315 1393.42 351L1454 387V459H1393.42C1332.83 459 1211.67 459 1090.5 459C969.333 459 848.167 459 727 459C605.833 459 484.667 459 363.5 459C242.333 459 121.167 459 60.5833 459H0V243Z" fill="url(#paint0_linear_134_5005)" fill-opacity="0.3"/>
<g filter="url(#filter2_f_134_5005)">
<ellipse cx="1305.5" cy="107.5" rx="184.5" ry="131.5" fill="#FF001F" fill-opacity="0.5"/>
</g>
</g>
<defs>
<filter id="filter0_f_134_5005" x="-418" y="-204" width="1169" height="1063" filterUnits="userSpaceOnUse" color-interpolation-filters="sRGB">
<feFlood flood-opacity="0" result="BackgroundImageFix"/>
<feBlend mode="normal" in="SourceGraphic" in2="BackgroundImageFix" result="shape"/>
<feGaussianBlur stdDeviation="200" result="effect1_foregroundBlur_134_5005"/>
</filter>
<filter id="filter1_f_134_5005" x="833" y="-185" width="993" height="919" filterUnits="userSpaceOnUse" color-interpolation-filters="sRGB">
<feFlood flood-opacity="0" result="BackgroundImageFix"/>
<feBlend mode="normal" in="SourceGraphic" in2="BackgroundImageFix" result="shape"/>
<feGaussianBlur stdDeviation="150" result="effect1_foregroundBlur_134_5005"/>
</filter>
<filter id="filter2_f_134_5005" x="721" y="-424" width="1169" height="1063" filterUnits="userSpaceOnUse" color-interpolation-filters="sRGB">
<feFlood flood-opacity="0" result="BackgroundImageFix"/>
<feBlend mode="normal" in="SourceGraphic" in2="BackgroundImageFix" result="shape"/>
<feGaussianBlur stdDeviation="200" result="effect1_foregroundBlur_134_5005"/>
</filter>
<linearGradient id="paint0_linear_134_5005" x1="727" y1="243" x2="727" y2="459" gradientUnits="userSpaceOnUse">
<stop stop-color="white"/>
<stop offset="1" stop-color="white" stop-opacity="0"/>
</linearGradient>
<clipPath id="clip0_134_5005">
<rect width="1454" height="510" fill="white"/>
</clipPath>
</defs>
</svg>
