<svg xmlns="http://www.w3.org/2000/svg" width="11" height="11" viewBox="0 0 11 11" fill="none">
<path d="M5.26933 3.97469C5.952 4.00669 6.128 4.58802 6.13867 4.86002H7.09333C7.05067 3.80402 6.29867 3.15869 5.25333 3.15869C4.07467 3.15869 3.2 3.90002 3.2 5.57469C3.2 6.60935 3.696 7.83602 5.248 7.83602C6.432 7.83602 7.06667 6.95602 7.08267 6.26269H6.128C6.112 6.57735 5.888 6.99869 5.25867 7.03069C4.56 7.00935 4.26667 6.46535 4.26667 5.57469C4.26667 4.03335 4.94933 3.98535 5.26933 3.97469ZM5.33333 0.166687C2.38933 0.166687 0 2.55602 0 5.50002C0 8.44402 2.38933 10.8334 5.33333 10.8334C8.27733 10.8334 10.6667 8.44402 10.6667 5.50002C10.6667 2.55602 8.27733 0.166687 5.33333 0.166687ZM5.33333 9.76669C2.98133 9.76669 1.06667 7.85202 1.06667 5.50002C1.06667 3.14802 2.98133 1.23335 5.33333 1.23335C7.68533 1.23335 9.6 3.14802 9.6 5.50002C9.6 7.85202 7.68533 9.76669 5.33333 9.76669Z" fill="#5972C9"/>
</svg>