<svg width="16" height="16" viewBox="0 0 16 16" fill="none" xmlns="http://www.w3.org/2000/svg">
<g clip-path="url(#clip0_1_18559)">
<path d="M13.2004 9.06621C13.2337 8.83288 13.267 8.59954 13.267 8.33288C13.267 8.06621 13.2337 7.83288 13.2004 7.59954L14.7004 6.53288C14.8337 6.43288 14.9004 6.23288 14.8004 6.06621L13.3337 3.59954C13.2337 3.43288 13.067 3.36621 12.9004 3.46621L11.2337 4.23288C10.8337 3.93288 10.4337 3.69954 9.96703 3.49954L9.80036 1.66621C9.76703 1.49954 9.63369 1.36621 9.46703 1.36621H6.60036C6.43369 1.36621 6.26703 1.49954 6.26703 1.66621L6.10036 3.49954C5.63369 3.69954 5.20036 3.93288 4.83369 4.23288L3.16703 3.46621C3.00036 3.39954 2.80036 3.46621 2.73369 3.59954L1.30036 6.06621C1.20036 6.23288 1.26703 6.43288 1.40036 6.53288L2.90036 7.59954C2.86703 7.83288 2.83369 8.06621 2.83369 8.33288C2.83369 8.59954 2.86703 8.83288 2.90036 9.06621L1.3337 10.1329C1.20036 10.2329 1.1337 10.4329 1.2337 10.5995L2.66703 13.0662C2.76703 13.2329 2.93369 13.2995 3.10036 13.1995L4.76703 12.4329C5.16703 12.7329 5.56703 12.9662 6.03369 13.1662L6.20036 14.9995C6.2337 15.1662 6.36703 15.2995 6.53369 15.2995H9.40036C9.56703 15.2995 9.7337 15.1662 9.7337 14.9995L9.90036 13.1662C10.367 12.9662 10.8004 12.7329 11.167 12.4329L12.8337 13.1995C13.0004 13.2662 13.2004 13.1995 13.267 13.0662L14.7004 10.5995C14.8004 10.4329 14.7337 10.2329 14.6004 10.1329L13.2004 9.06621ZM8.00036 11.6662C6.16703 11.6662 4.66703 10.1662 4.66703 8.33288C4.66703 6.49954 6.16703 4.99954 8.00036 4.99954C9.83369 4.99954 11.3337 6.49954 11.3337 8.33288C11.3337 10.1662 9.83369 11.6662 8.00036 11.6662Z" fill="#CEE1FC"/>
<path d="M8 4.33301C5.8 4.33301 4 6.13301 4 8.33301C4 10.533 5.8 12.333 8 12.333C10.2 12.333 12 10.533 12 8.33301C12 6.13301 10.2 4.33301 8 4.33301ZM8 9.99967C7.06667 9.99967 6.33333 9.26634 6.33333 8.33301C6.33333 7.39967 7.06667 6.66634 8 6.66634C8.93333 6.66634 9.66667 7.39967 9.66667 8.33301C9.66667 9.26634 8.93333 9.99967 8 9.99967Z" fill="#827BA9"/>
</g>
<defs>
<clipPath id="clip0_1_18559">
<rect width="16" height="16" fill="white"/>
</clipPath>
</defs>
</svg>
