<svg xmlns="http://www.w3.org/2000/svg" width="1454" height="195" viewBox="0 0 1454 195" fill="none">
  <path fill-rule="evenodd" clip-rule="evenodd" d="M0 130L39.985 137.222C81.1817 144.444 161.152 158.889 242.333 151.667C323.515 144.444 403.485 115.556 484.667 115.556C565.848 115.556 645.818 144.444 727 158.889C808.182 173.333 888.152 173.333 969.333 169.722C1050.52 166.111 1130.48 158.889 1211.67 130C1292.85 101.111 1372.82 50.5556 1414.02 25.2778L1454 0V195H1414.02C1372.82 195 1292.85 195 1211.67 195C1130.48 195 1050.52 195 969.333 195C888.152 195 808.182 195 727 195C645.818 195 565.848 195 484.667 195C403.485 195 323.515 195 242.333 195C161.152 195 81.1817 195 39.985 195H0V130Z" fill="white" fill-opacity="0.2"/>
</svg>