<svg width="28" height="24" viewBox="0 0 28 24" fill="none" xmlns="http://www.w3.org/2000/svg">
<g id="bxl:linkedin">
<path id="Vector" d="M6.14337 7.19701C7.47166 7.19701 8.54845 6.21741 8.54845 5.00901C8.54845 3.80062 7.47166 2.82101 6.14337 2.82101C4.81507 2.82101 3.73828 3.80062 3.73828 5.00901C3.73828 6.21741 4.81507 7.19701 6.14337 7.19701Z" fill="white"/>
<path id="Vector_2" d="M10.8197 8.85499V20.994H14.9627V14.991C14.9627 13.407 15.2903 11.873 17.4491 11.873C19.5783 11.873 19.6047 13.684 19.6047 15.091V20.995H23.7498V14.338C23.7498 11.068 22.976 8.55499 18.7748 8.55499C16.7577 8.55499 15.4057 9.56199 14.8528 10.515H14.7967V8.85499H10.8197ZM4.06836 8.85499H8.2179V20.994H4.06836V8.85499Z" fill="white"/>
</g>
</svg>
