<svg width="316" height="76" viewBox="0 0 316 76" fill="none" xmlns="http://www.w3.org/2000/svg">
<g clip-path="url(#clip0_1_18404)">
<g filter="url(#filter0_d_1_18404)">
<path d="M25.56 51.3V35.55C29.16 35.55 30.96 34.17 30.96 31.41C30.96 28.89 29.58 27.63 26.82 27.63C24.06 27.63 22.68 29.34 22.68 32.76V72H4.77V34.65C4.77 29.43 5.61 25.17 7.29 21.87C8.97 18.57 11.67 15.87 15.39 13.77C19.17 11.61 23.25 10.53 27.63 10.53C33.69 10.53 38.79 12.6 42.93 16.74C47.13 20.82 49.23 25.89 49.23 31.95C49.23 38.01 47.4 42.75 43.74 46.17C40.14 49.59 34.98 51.3 28.26 51.3H25.56Z" fill="#827BA9"/>
</g>
<g filter="url(#filter1_d_1_18404)">
<path d="M97.85 29.25V72H80.03V11.97H103.25C113.87 11.97 122.24 14.64 128.36 19.98C134.48 25.32 137.54 32.49 137.54 41.49C137.54 50.55 134.6 57.96 128.72 63.72C122.84 69.42 115.28 72.27 106.04 72.27C105.68 72.27 103.91 72.21 100.73 72.09V54.45H103.61C114.05 54.45 119.27 50.13 119.27 41.49C119.27 33.33 114.14 29.25 103.88 29.25H97.85Z" fill="#827BA9"/>
</g>
<g filter="url(#filter2_d_1_18404)">
<path d="M148.26 41.91V55.28H142.52V69H129.71V39.46C129.71 34.0467 131.413 29.66 134.82 26.3C138.273 22.8933 142.753 21.19 148.26 21.19V34.56C146.067 34.56 144.55 35.12 143.71 36.24C142.917 37.3133 142.52 39.2033 142.52 41.91H148.26ZM153.773 34.91H166.583V54.3C166.583 56.2133 167.376 57.17 168.963 57.17C170.596 57.17 171.413 56.2133 171.413 54.3V34.91H184.153V54.09C184.153 58.6167 182.706 62.3733 179.813 65.36C176.966 68.3 173.349 69.77 168.963 69.77C164.343 69.77 160.656 68.3 157.903 65.36C155.149 62.42 153.773 58.3133 153.773 53.04V34.91ZM213.064 34.91V48.35C211.057 48.35 209.75 48.7 209.144 49.4C208.537 50.1 208.164 51.29 208.024 52.97C207.044 63.6567 201.094 69 190.174 69H188.424V55.49C190.85 55.49 192.507 55.07 193.394 54.23C194.28 53.3433 194.794 51.8267 194.934 49.68C195.12 46.46 195.377 44.2433 195.704 43.03C196.077 41.77 196.87 40.4867 198.084 39.18C199.344 37.8267 200.86 36.7767 202.634 36.03C204.454 35.2833 206.624 34.91 209.144 34.91H213.064ZM217.56 25.88C217.56 24.1533 218.143 22.7067 219.31 21.54C220.523 20.3267 221.993 19.72 223.72 19.72C225.447 19.72 226.893 20.3267 228.06 21.54C229.273 22.7067 229.88 24.1533 229.88 25.88C229.88 27.6067 229.273 29.0767 228.06 30.29C226.893 31.4567 225.447 32.04 223.72 32.04C221.993 32.04 220.523 31.4567 219.31 30.29C218.143 29.0767 217.56 27.6067 217.56 25.88ZM230.02 34.91V69H217.21V34.91H230.02ZM235.553 51.99C235.553 47.1367 237.303 42.96 240.803 39.46C244.349 35.9133 248.549 34.14 253.403 34.14C258.256 34.14 262.433 35.9133 265.933 39.46C269.479 42.96 271.253 47.1367 271.253 51.99C271.253 56.8433 269.503 61.02 266.003 64.52C262.503 68.02 258.303 69.77 253.403 69.77C248.503 69.77 244.303 68.02 240.803 64.52C237.303 61.02 235.553 56.8433 235.553 51.99ZM248.223 51.99C248.223 53.39 248.713 54.6033 249.693 55.63C250.719 56.61 251.956 57.1 253.403 57.1C254.849 57.1 256.063 56.61 257.043 55.63C258.069 54.6033 258.583 53.39 258.583 51.99C258.583 50.5433 258.069 49.33 257.043 48.35C256.063 47.3233 254.849 46.81 253.403 46.81C251.956 46.81 250.719 47.3233 249.693 48.35C248.713 49.33 248.223 50.5433 248.223 51.99ZM306.994 69H294.254V49.68C294.254 47.72 293.438 46.74 291.804 46.74C290.218 46.74 289.424 47.72 289.424 49.68V69H276.614V49.96C276.614 45.5267 278.084 41.7933 281.024 38.76C283.964 35.68 287.558 34.14 291.804 34.14C296.471 34.14 300.158 35.6333 302.864 38.62C305.618 41.56 306.994 45.6667 306.994 50.94V69Z" fill="white"/>
</g>
<path d="M76.325 52.1665C76.4521 51.3644 76.5792 50.5623 76.5792 49.6457C76.5792 48.729 76.4521 47.9269 76.325 47.1248L82.0438 43.4582C82.5521 43.1144 82.8063 42.4269 82.425 41.854L76.8334 33.3748C76.4521 32.8019 75.8167 32.5728 75.1813 32.9165L68.8271 35.5519C67.3021 34.5207 65.7771 33.7186 63.998 33.0311L63.3625 26.729C63.2355 26.1561 62.7271 25.6978 62.0917 25.6978H51.1625C50.5271 25.6978 49.8917 26.1561 49.8917 26.729L49.2563 33.0311C47.4771 33.7186 45.825 34.5207 44.4271 35.5519L38.073 32.9165C37.4375 32.6873 36.675 32.9165 36.4209 33.3748L30.9563 41.854C30.575 42.4269 30.8292 43.1144 31.3375 43.4582L37.0563 47.1248C36.9292 47.9269 36.8021 48.729 36.8021 49.6457C36.8021 50.5623 36.9292 51.3644 37.0563 52.1665L31.0834 55.8332C30.575 56.1769 30.3209 56.8644 30.7021 57.4373L36.1667 65.9165C36.548 66.4894 37.1834 66.7186 37.8188 66.3748L44.173 63.7394C45.698 64.7707 47.223 65.5728 49.0021 66.2603L49.6375 72.5623C49.7646 73.1353 50.273 73.5936 50.9084 73.5936H61.8375C62.473 73.5936 63.1084 73.1353 63.1084 72.5623L63.7438 66.2603C65.523 65.5728 67.175 64.7707 68.573 63.7394L74.9271 66.3748C75.5625 66.604 76.325 66.3748 76.5792 65.9165L82.0438 57.4373C82.425 56.8644 82.1709 56.1769 81.6625 55.8332L76.325 52.1665ZM56.5 61.104C49.5105 61.104 43.7917 55.9478 43.7917 49.6457C43.7917 43.3436 49.5105 38.1873 56.5 38.1873C63.4896 38.1873 69.2084 43.3436 69.2084 49.6457C69.2084 55.9478 63.4896 61.104 56.5 61.104Z" fill="#9CBAE4"/>
<path d="M56.5 35.896C48.1125 35.896 41.25 42.0835 41.25 49.646C41.25 57.2085 48.1125 63.396 56.5 63.396C64.8875 63.396 71.75 57.2085 71.75 49.646C71.75 42.0835 64.8875 35.896 56.5 35.896ZM56.5 55.3752C52.9417 55.3752 50.1458 52.8543 50.1458 49.646C50.1458 46.4377 52.9417 43.9168 56.5 43.9168C60.0583 43.9168 62.8542 46.4377 62.8542 49.646C62.8542 52.8543 60.0583 55.3752 56.5 55.3752Z" fill="#827BA9"/>
</g>
<defs>
<filter id="filter0_d_1_18404" x="2.76953" y="9.52979" width="50.4609" height="67.4702" filterUnits="userSpaceOnUse" color-interpolation-filters="sRGB">
<feFlood flood-opacity="0" result="BackgroundImageFix"/>
<feColorMatrix in="SourceAlpha" type="matrix" values="0 0 0 0 0 0 0 0 0 0 0 0 0 0 0 0 0 0 127 0" result="hardAlpha"/>
<feOffset dx="1" dy="2"/>
<feGaussianBlur stdDeviation="1.5"/>
<feComposite in2="hardAlpha" operator="out"/>
<feColorMatrix type="matrix" values="0 0 0 0 0 0 0 0 0 0 0 0 0 0 0 0 0 0 0.2 0"/>
<feBlend mode="normal" in2="BackgroundImageFix" result="effect1_dropShadow_1_18404"/>
<feBlend mode="normal" in="SourceGraphic" in2="effect1_dropShadow_1_18404" result="shape"/>
</filter>
<filter id="filter1_d_1_18404" x="78.0303" y="10.9702" width="63.5098" height="66.2998" filterUnits="userSpaceOnUse" color-interpolation-filters="sRGB">
<feFlood flood-opacity="0" result="BackgroundImageFix"/>
<feColorMatrix in="SourceAlpha" type="matrix" values="0 0 0 0 0 0 0 0 0 0 0 0 0 0 0 0 0 0 127 0" result="hardAlpha"/>
<feOffset dx="1" dy="2"/>
<feGaussianBlur stdDeviation="1.5"/>
<feComposite in2="hardAlpha" operator="out"/>
<feColorMatrix type="matrix" values="0 0 0 0 0 0 0 0 0 0 0 0 0 0 0 0 0 0 0.1 0"/>
<feBlend mode="normal" in2="BackgroundImageFix" result="effect1_dropShadow_1_18404"/>
<feBlend mode="normal" in="SourceGraphic" in2="effect1_dropShadow_1_18404" result="shape"/>
</filter>
<filter id="filter2_d_1_18404" x="125.71" y="16.7202" width="187.284" height="60.0498" filterUnits="userSpaceOnUse" color-interpolation-filters="sRGB">
<feFlood flood-opacity="0" result="BackgroundImageFix"/>
<feColorMatrix in="SourceAlpha" type="matrix" values="0 0 0 0 0 0 0 0 0 0 0 0 0 0 0 0 0 0 127 0" result="hardAlpha"/>
<feOffset dx="1" dy="2"/>
<feGaussianBlur stdDeviation="2.5"/>
<feComposite in2="hardAlpha" operator="out"/>
<feColorMatrix type="matrix" values="0 0 0 0 0 0 0 0 0 0 0 0 0 0 0 0 0 0 0.2 0"/>
<feBlend mode="normal" in2="BackgroundImageFix" result="effect1_dropShadow_1_18404"/>
<feBlend mode="normal" in="SourceGraphic" in2="effect1_dropShadow_1_18404" result="shape"/>
</filter>
<clipPath id="clip0_1_18404">
<rect width="316" height="76" fill="white"/>
</clipPath>
</defs>
</svg>
