<svg xmlns="http://www.w3.org/2000/svg" width="16" height="16" viewBox="0 0 16 16" fill="none">
  <path d="M13.1999 9.0667C13.2332 8.83337 13.2665 8.60003 13.2665 8.33337C13.2665 8.0667 13.2332 7.83337 13.1999 7.60003L14.6999 6.53337C14.8332 6.43337 14.8999 6.23337 14.7999 6.0667L13.3332 3.60003C13.2332 3.43337 13.0665 3.3667 12.8999 3.4667L11.2332 4.23337C10.8332 3.93337 10.4332 3.70003 9.96654 3.50003L9.79987 1.6667C9.76654 1.50003 9.63321 1.3667 9.46654 1.3667H6.59987C6.43321 1.3667 6.26654 1.50003 6.26654 1.6667L6.09987 3.50003C5.63321 3.70003 5.19987 3.93337 4.83321 4.23337L3.16654 3.4667C2.99987 3.40003 2.79987 3.4667 2.73321 3.60003L1.29987 6.0667C1.19987 6.23337 1.26654 6.43337 1.39987 6.53337L2.89987 7.60003C2.86654 7.83337 2.83321 8.0667 2.83321 8.33337C2.83321 8.60003 2.86654 8.83337 2.89987 9.0667L1.33321 10.1334C1.19987 10.2334 1.13321 10.4334 1.23321 10.6L2.66654 13.0667C2.76654 13.2334 2.93321 13.3 3.09987 13.2L4.76654 12.4334C5.16654 12.7334 5.56654 12.9667 6.03321 13.1667L6.19987 15C6.23321 15.1667 6.36654 15.3 6.53321 15.3H9.39987C9.56654 15.3 9.73321 15.1667 9.73321 15L9.89987 13.1667C10.3665 12.9667 10.7999 12.7334 11.1665 12.4334L12.8332 13.2C12.9999 13.2667 13.1999 13.2 13.2665 13.0667L14.6999 10.6C14.7999 10.4334 14.7332 10.2334 14.5999 10.1334L13.1999 9.0667ZM7.99987 11.6667C6.16654 11.6667 4.66654 10.1667 4.66654 8.33337C4.66654 6.50003 6.16654 5.00003 7.99987 5.00003C9.83321 5.00003 11.3332 6.50003 11.3332 8.33337C11.3332 10.1667 9.83321 11.6667 7.99987 11.6667Z" fill="#ADC8ED"/>
  <path d="M8 4.3335C5.8 4.3335 4 6.1335 4 8.3335C4 10.5335 5.8 12.3335 8 12.3335C10.2 12.3335 12 10.5335 12 8.3335C12 6.1335 10.2 4.3335 8 4.3335ZM8 10.0002C7.06667 10.0002 6.33333 9.26683 6.33333 8.3335C6.33333 7.40016 7.06667 6.66683 8 6.66683C8.93333 6.66683 9.66667 7.40016 9.66667 8.3335C9.66667 9.26683 8.93333 10.0002 8 10.0002Z" fill="#827BA9"/>
</svg>