<svg width="27" height="24" viewBox="0 0 27 24" fill="none" xmlns="http://www.w3.org/2000/svg">
<g id="mdi:twitter">
<path id="Vector" d="M25.3071 6C24.4607 6.35 23.5484 6.58 22.6031 6.69C23.5704 6.16 24.3178 5.32 24.6696 4.31C23.7572 4.81 22.746 5.16 21.6797 5.36C20.8113 4.5 19.5912 4 18.2062 4C15.623 4 13.5125 5.92 13.5125 8.29C13.5125 8.63 13.5565 8.96 13.6335 9.27C9.72024 9.09 6.23573 7.38 3.91638 4.79C3.50967 5.42 3.27883 6.16 3.27883 6.94C3.27883 8.43 4.10325 9.75 5.37834 10.5C4.59789 10.5 3.87241 10.3 3.23487 10V10.03C3.23487 12.11 4.86171 13.85 7.01617 14.24C6.32446 14.4122 5.59829 14.4362 4.89468 14.31C5.19324 15.1625 5.77794 15.9084 6.56661 16.4429C7.35528 16.9775 8.30824 17.2737 9.29155 17.29C7.62473 18.4904 5.55861 19.1393 3.43272 19.13C3.05899 19.13 2.68526 19.11 2.31152 19.07C4.40004 20.29 6.88426 21 9.54437 21C18.2062 21 22.9658 14.46 22.9658 8.79C22.9658 8.6 22.9658 8.42 22.9548 8.23C23.8782 7.63 24.6696 6.87 25.3071 6Z" fill="white"/>
</g>
</svg>
