<svg width="24" height="24" viewBox="0 0 24 24" fill="none" xmlns="http://www.w3.org/2000/svg">
<g clip-path="url(#clip0_258_4846)">
<path d="M21.3752 24C21.0303 24.001 20.6887 23.9336 20.37 23.8016C20.0514 23.6697 19.7621 23.4758 19.519 23.2313L16.423 20.1353C15.5444 20.3293 14.6293 20.2762 13.779 19.9819C12.9288 19.6877 12.1767 19.1637 11.606 18.4681C11.0353 17.7726 10.6684 16.9325 10.5459 16.0412C10.4234 15.1499 10.5501 14.242 10.912 13.4183L11.353 12.4133L14.47 15.5303C14.6127 15.6666 14.8025 15.7426 14.9998 15.7426C15.1972 15.7426 15.387 15.6666 15.5297 15.5303C15.5995 15.4607 15.6548 15.3781 15.6926 15.2872C15.7304 15.1962 15.7499 15.0987 15.75 15.0002C15.7501 14.9017 15.7307 14.8041 15.693 14.7131C15.6554 14.6221 15.6001 14.5394 15.5305 14.4698L12.4135 11.352L13.4185 10.911C14.2423 10.5494 15.1501 10.4228 16.0414 10.5455C16.9327 10.6681 17.7727 11.0351 18.4682 11.6059C19.1637 12.1766 19.6876 12.9287 19.9819 13.7789C20.2762 14.6291 20.3293 15.5442 20.1355 16.4228L23.2315 19.5188C23.5986 19.8859 23.8486 20.3536 23.9499 20.8629C24.0512 21.3721 23.9993 21.8999 23.8006 22.3796C23.6019 22.8593 23.2654 23.2692 22.8337 23.5577C22.402 23.8461 21.8944 24.0001 21.3752 24ZM16.8527 18.4433L20.5802 22.1708C20.7944 22.3752 21.0791 22.4893 21.3752 22.4893C21.6713 22.4893 21.956 22.3752 22.1702 22.1708C22.2748 22.0664 22.3578 21.9424 22.4144 21.806C22.4711 21.6695 22.5002 21.5232 22.5002 21.3754C22.5002 21.2276 22.4711 21.0813 22.4144 20.9448C22.3578 20.8083 22.2748 20.6844 22.1702 20.58L18.4435 16.8525L18.5845 16.4153C18.7492 15.9089 18.7917 15.3708 18.7084 14.8448C18.6252 14.3189 18.4186 13.8202 18.1055 13.3894C17.7924 12.9587 17.3818 12.6083 16.9072 12.3668C16.4327 12.1253 15.9077 11.9996 15.3752 12C15.3122 12 15.2497 12.0018 15.1877 12.0053L16.5917 13.4093C17.0135 13.8312 17.2505 14.4034 17.2505 15C17.2505 15.5966 17.0135 16.1688 16.5917 16.5908C16.1631 17 15.5932 17.2284 15.0006 17.2284C14.4079 17.2284 13.8381 17 13.4095 16.5908L12.0055 15.1868C12.002 15.2493 12.0002 15.312 12.0002 15.375C11.9998 15.9076 12.1255 16.4327 12.367 16.9073C12.6086 17.382 12.9591 17.7927 13.3899 18.1058C13.8206 18.419 14.3195 18.6256 14.8455 18.7089C15.3715 18.7922 15.9098 18.7498 16.4162 18.585L16.8527 18.4433Z" fill="white"/>
<path d="M18.75 3.75H16.5V3C16.4988 2.60254 16.3404 2.2217 16.0593 1.94065C15.7783 1.6596 15.3975 1.50119 15 1.5H9C8.60254 1.50119 8.2217 1.6596 7.94065 1.94065C7.6596 2.2217 7.50119 2.60254 7.5 3V3.75H5.25C4.85254 3.75119 4.4717 3.9096 4.19065 4.19065C3.9096 4.4717 3.75119 4.85254 3.75 5.25V21C3.75119 21.3975 3.9096 21.7783 4.19065 22.0593C4.4717 22.3404 4.85254 22.4988 5.25 22.5H10.5V21H5.25V5.25H7.5V7.5H16.5V5.25H18.75V9H20.25V5.25C20.2488 4.85254 20.0904 4.4717 19.8093 4.19065C19.5283 3.9096 19.1475 3.75119 18.75 3.75ZM15 6H9V3H15V6Z" fill="white"/>
</g>
<defs>
<clipPath id="clip0_258_4846">
<rect width="24" height="24" fill="white"/>
</clipPath>
</defs>
</svg>
