<svg width="16" height="18" viewBox="0 0 16 18" fill="none" xmlns="http://www.w3.org/2000/svg">
<path d="M3.00217 5.99183L8.00017 11.4728L12.9982 5.99183C13.0875 5.89371 13.2073 5.83877 13.3322 5.83877C13.457 5.83877 13.5769 5.89371 13.6662 5.99183C13.7094 6.03949 13.7438 6.09638 13.7672 6.15916C13.7907 6.22194 13.8027 6.28936 13.8027 6.35746C13.8027 6.42556 13.7907 6.49297 13.7672 6.55575C13.7438 6.61853 13.7094 6.67542 13.6662 6.72308L8.34917 12.5551C8.25579 12.6575 8.13056 12.7148 8.00017 12.7148C7.86977 12.7148 7.74454 12.6575 7.65117 12.5551L2.33417 6.72421C2.29062 6.67651 2.25601 6.61948 2.23238 6.55649C2.20875 6.4935 2.19658 6.42583 2.19658 6.35746C2.19658 6.28909 2.20875 6.22141 2.23238 6.15842C2.25601 6.09543 2.29062 6.0384 2.33417 5.99071C2.42346 5.89258 2.54334 5.83765 2.66817 5.83765C2.79299 5.83765 2.91287 5.89258 3.00217 5.99071V5.99183Z" fill="#9747FF"/>
</svg>
