<svg width="50" height="50" viewBox="0 0 50 50" fill="none" xmlns="http://www.w3.org/2000/svg">
<g clip-path="url(#clip0_254_4824)">
<path d="M43.7499 37.5001C43.7687 38.3324 43.621 39.1601 43.3156 39.9345C43.0101 40.709 42.553 41.4146 41.9711 42.01C41.3892 42.6053 40.6942 43.0785 39.9269 43.4015C39.1596 43.7246 38.3355 43.8911 37.503 43.8914C36.6705 43.8916 35.8463 43.7254 35.0789 43.4028C34.3115 43.0801 33.6162 42.6073 33.034 42.0122C32.4518 41.4171 31.9943 40.7117 31.6885 39.9374C31.3827 39.1631 31.2346 38.3355 31.253 37.5032C31.2891 35.8702 31.9631 34.3162 33.1306 33.1739C34.2982 32.0316 35.8665 31.3918 37.4999 31.3914C39.1333 31.3909 40.702 32.03 41.8701 33.1717C43.0382 34.3134 43.7129 35.8671 43.7499 37.5001Z" fill="#827BA9"/>
<path d="M36.5625 50C34.0625 50 31.5625 49.375 29.375 47.8125L10 37.5C8.4375 36.25 7.1875 35.625 5.9375 34.375C2.1875 30.625 0 25.3125 0 20C0 14.6875 2.1875 9.6875 5.9375 5.9375C9.6875 2.1875 14.6875 0 20 0C25.3125 0 30.3125 2.1875 34.375 5.9375C35.625 7.1875 36.25 8.125 37.5 9.6875L48.4375 29.6875C51.5625 35 50.625 41.5625 46.25 45.9375C43.4375 48.75 40.3125 50 36.5625 50ZM20 3.125C15.625 3.125 11.25 5 8.125 8.125C5 11.25 3.125 15.625 3.125 20C3.125 24.6875 5 28.75 8.125 31.875C9.0625 32.8125 10 33.4375 11.5625 34.375L31.25 45C33.125 46.25 35 46.5625 36.875 46.5625C39.6875 46.5625 42.1875 45.625 44.0625 43.4375C47.5 40 48.125 35 45.625 30.9375L34.6875 10.9375C33.75 9.6875 33.125 8.75 32.1875 7.8125C28.75 5 24.6875 3.125 20 3.125Z" fill="#827BA9"/>
<path d="M34.375 21.875V18.75L30 17.1875C29.6875 16.5625 29.6875 16.25 29.375 15.625L31.25 11.5625L29.0625 9.375L25 11.25C24.375 10.9375 24.0625 10.9375 23.4375 10.625L21.875 6.25H18.75L17.1875 10.625C16.5625 10.9375 16.25 10.9375 15.625 11.25L11.5625 9.375L9.375 11.5625L11.25 15.625C10.9375 16.25 10.9375 16.5625 10.625 17.1875L6.25 18.75V21.875L10.625 23.4375C10.9375 24.0625 10.9375 24.375 11.25 25L9.375 29.0625L11.5625 31.25L15.625 29.375C16.25 29.6875 16.5625 30 17.1875 30L18.75 34.375H21.875L23.4375 30C24.0625 29.6875 24.375 29.6875 25 29.375L29.0625 31.25L31.25 29.0625L29.375 25C29.6875 24.375 30 24.0625 30 23.4375L34.375 21.875ZM20.3125 25C17.8125 25 15.625 22.8125 15.625 20.3125C15.625 17.8125 17.8125 15.625 20.3125 15.625C22.8125 15.625 25 17.8125 25 20.3125C25 22.8125 22.8125 25 20.3125 25Z" fill="#827BA9"/>
</g>
<defs>
<clipPath id="clip0_254_4824">
<rect width="50" height="50" fill="white"/>
</clipPath>
</defs>
</svg>
