<svg xmlns="http://www.w3.org/2000/svg" width="50" height="50" viewBox="0 0 50 50" fill="none">
  <path d="M37.4998 27.0835V22.9168H45.8332V27.0835H37.4998ZM39.9998 41.6668L33.3332 36.6668L35.8332 33.3335L42.4998 38.3335L39.9998 41.6668ZM35.8332 16.6668L33.3332 13.3335L39.9998 8.3335L42.4998 11.6668L35.8332 16.6668ZM10.4165 39.5835V31.2502H8.33317C7.18734 31.2502 6.20609 30.8418 5.38942 30.0252C4.57276 29.2085 4.16512 28.2279 4.16651 27.0835V22.9168C4.16651 21.771 4.57484 20.7897 5.39151 19.9731C6.20817 19.1564 7.18873 18.7488 8.33317 18.7502H16.6665L27.0832 12.5002V37.5002L16.6665 31.2502H14.5832V39.5835H10.4165ZM29.1665 31.9793V18.021C30.104 18.8543 30.8596 19.8703 31.4332 21.0689C32.0068 22.2675 32.2929 23.5779 32.2915 25.0002C32.2915 26.4238 32.0047 27.7349 31.4311 28.9335C30.8575 30.1321 30.1026 31.1474 29.1665 31.9793ZM8.33317 22.9168V27.0835H17.8123L22.9165 30.1043V19.896L17.8123 22.9168H8.33317Z" fill="#827BA9"/>
</svg>