<svg width="24" height="24" viewBox="0 0 24 24" fill="none" xmlns="http://www.w3.org/2000/svg">
<path d="M3.00012 3.75C3.00012 3.55109 3.07914 3.36032 3.21979 3.21967C3.36044 3.07902 3.55121 3 3.75012 3C3.94903 3 4.1398 3.07902 4.28045 3.21967C4.4211 3.36032 4.50012 3.55109 4.50012 3.75V10.008L8.15012 8.086C8.26325 8.02656 8.3897 7.99701 8.51746 8.00016C8.64522 8.00331 8.77005 8.03905 8.88012 8.104L12.7001 10.35L18.3001 6.15C18.4115 6.06643 18.544 6.01554 18.6828 6.00303C18.8215 5.99052 18.961 6.01689 19.0855 6.07918C19.2101 6.14147 19.3149 6.23722 19.3881 6.3557C19.4613 6.47418 19.5001 6.61072 19.5001 6.75V19.5H20.2501C20.449 19.5 20.6398 19.579 20.7805 19.7197C20.9211 19.8603 21.0001 20.0511 21.0001 20.25C21.0001 20.4489 20.9211 20.6397 20.7805 20.7803C20.6398 20.921 20.449 21 20.2501 21H3.75012C3.55121 21 3.36044 20.921 3.21979 20.7803C3.07914 20.6397 3.00012 20.4489 3.00012 20.25V11.264C2.99996 11.255 2.99996 11.246 3.00012 11.237V3.75ZM4.50012 11.703V19.5H18.0001V8.25L13.2001 11.85C13.0817 11.9387 12.9398 11.9903 12.7921 11.9985C12.6444 12.0067 12.4976 11.971 12.3701 11.896L8.48012 9.608L4.50012 11.703Z" fill="#3D318A"/>
</svg>
