<svg xmlns="http://www.w3.org/2000/svg" width="19" height="18" viewBox="0 0 19 18" fill="none">
  <path d="M7.25 6.75H8.375V13.5H7.25V6.75ZM10.625 6.75H11.75V13.5H10.625V6.75Z" fill="#655CA0"/>
  <path d="M2.75 3.375V4.5H3.875V15.75C3.875 16.0484 3.99353 16.3345 4.2045 16.5455C4.41548 16.7565 4.70163 16.875 5 16.875H14C14.2984 16.875 14.5845 16.7565 14.7955 16.5455C15.0065 16.3345 15.125 16.0484 15.125 15.75V4.5H16.25V3.375H2.75ZM5 15.75V4.5H14V15.75H5ZM7.25 1.125H11.75V2.25H7.25V1.125Z" fill="#655CA0"/>
</svg>