<svg width="16" height="18" viewBox="0 0 16 18" fill="none" xmlns="http://www.w3.org/2000/svg">
<path d="M3.00217 5.99159L8.00017 11.4726L12.9982 5.99159C13.0875 5.89346 13.2073 5.83853 13.3322 5.83853C13.457 5.83853 13.5769 5.89346 13.6662 5.99159C13.7094 6.03925 13.7438 6.09613 13.7672 6.15891C13.7907 6.2217 13.8027 6.28911 13.8027 6.35721C13.8027 6.42531 13.7907 6.49273 13.7672 6.55551C13.7438 6.61829 13.7094 6.67518 13.6662 6.72284L8.34917 12.5548C8.25579 12.6572 8.13056 12.7145 8.00017 12.7145C7.86977 12.7145 7.74454 12.6572 7.65117 12.5548L2.33417 6.72396C2.29062 6.67627 2.25601 6.61924 2.23238 6.55625C2.20875 6.49326 2.19658 6.42558 2.19658 6.35721C2.19658 6.28884 2.20875 6.22116 2.23238 6.15817C2.25601 6.09518 2.29062 6.03816 2.33417 5.99046C2.42346 5.89234 2.54334 5.8374 2.66817 5.8374C2.79299 5.8374 2.91287 5.89234 3.00217 5.99046V5.99159Z" fill="#9747FF"/>
</svg>
