<svg xmlns="http://www.w3.org/2000/svg" width="19" height="18" viewBox="0 0 19 18" fill="none">
  <path fill-rule="evenodd" clip-rule="evenodd" d="M16.3575 10.7145V3.85735C16.3575 3.4027 16.1769 2.96666 15.8554 2.64517C15.5339 2.32368 15.0979 2.14307 14.6432 2.14307H7.78606C7.33141 2.14307 6.89537 2.32368 6.57388 2.64517C6.25239 2.96666 6.07178 3.4027 6.07178 3.85735V10.7145C6.07178 11.1692 6.25239 11.6052 6.57388 11.9267C6.89537 12.2482 7.33141 12.4288 7.78606 12.4288H14.6432C15.0979 12.4288 15.5339 12.2482 15.8554 11.9267C16.1769 11.6052 16.3575 11.1692 16.3575 10.7145Z" stroke="#655CA0" stroke-linecap="round" stroke-linejoin="round"/>
  <path d="M6.07164 5.57407H4.35735C3.9027 5.57407 3.46666 5.75468 3.14517 6.07617C2.82368 6.39766 2.64307 6.8337 2.64307 7.28836V14.1429C2.64307 14.5976 2.82368 15.0336 3.14517 15.3551C3.46666 15.6766 3.9027 15.8572 4.35735 15.8572H4.35992L11.2171 15.8452C11.6713 15.8445 12.1067 15.6636 12.4276 15.3422C12.7485 15.0208 12.9288 14.5851 12.9288 14.1309V12.4312M11.2145 4.71436V9.85721M13.7859 7.28578H8.64307" stroke="#655CA0" stroke-linecap="round" stroke-linejoin="round"/>
</svg>