<svg xmlns="http://www.w3.org/2000/svg" width="33" height="34" viewBox="0 0 33 34" fill="none">
  <path d="M16.4312 25.25C16.9125 25.25 17.3195 25.0836 17.6523 24.7509C17.985 24.4181 18.1509 24.0116 18.15 23.5312C18.15 23.05 17.9841 22.643 17.6523 22.3103C17.3204 21.9775 16.9134 21.8116 16.4312 21.8125C15.95 21.8125 15.5435 21.9789 15.2116 22.3116C14.8798 22.6444 14.7134 23.0509 14.7125 23.5312C14.7125 24.0125 14.8789 24.4195 15.2116 24.7523C15.5444 25.085 15.9509 25.2509 16.4312 25.25ZM15.1938 19.9562H17.7375C17.7375 19.2 17.8237 18.6042 17.996 18.1688C18.1683 17.7333 18.6551 17.1375 19.4562 16.3813C20.0521 15.7854 20.5219 15.218 20.8656 14.679C21.2094 14.14 21.3813 13.4928 21.3813 12.7375C21.3813 11.4542 20.9115 10.4688 19.9719 9.78125C19.0323 9.09375 17.9208 8.75 16.6375 8.75C15.3313 8.75 14.2711 9.09375 13.4571 9.78125C12.6431 10.4688 12.0762 11.2937 11.7563 12.2563L14.025 13.15C14.1396 12.7375 14.3976 12.2906 14.7991 11.8094C15.2006 11.3281 15.8134 11.0875 16.6375 11.0875C17.3708 11.0875 17.9208 11.2882 18.2875 11.6897C18.6542 12.0912 18.8375 12.5322 18.8375 13.0125C18.8375 13.4708 18.7 13.9008 18.425 14.3022C18.15 14.7038 17.8062 15.0759 17.3937 15.4188C16.3854 16.3125 15.7667 16.9885 15.5375 17.4469C15.3083 17.9052 15.1938 18.7417 15.1938 19.9562ZM16.5 30.75C14.5979 30.75 12.8104 30.3888 11.1375 29.6665C9.46458 28.9442 8.00938 27.9647 6.77188 26.7281C5.53438 25.4906 4.55492 24.0354 3.8335 22.3625C3.11208 20.6896 2.75092 18.9021 2.75 17C2.75 15.0979 3.11117 13.3104 3.8335 11.6375C4.55583 9.96458 5.53529 8.50938 6.77188 7.27188C8.00938 6.03438 9.46458 5.05492 11.1375 4.3335C12.8104 3.61208 14.5979 3.25092 16.5 3.25C18.4021 3.25 20.1896 3.61117 21.8625 4.3335C23.5354 5.05583 24.9906 6.03529 26.2281 7.27188C27.4656 8.50938 28.4455 9.96458 29.1679 11.6375C29.8902 13.3104 30.2509 15.0979 30.25 17C30.25 18.9021 29.8888 20.6896 29.1665 22.3625C28.4442 24.0354 27.4647 25.4906 26.2281 26.7281C24.9906 27.9656 23.5354 28.9455 21.8625 29.6679C20.1896 30.3902 18.4021 30.7509 16.5 30.75ZM16.5 28C19.5708 28 22.1719 26.9344 24.3031 24.8031C26.4344 22.6719 27.5 20.0708 27.5 17C27.5 13.9292 26.4344 11.3281 24.3031 9.19687C22.1719 7.06562 19.5708 6 16.5 6C13.4292 6 10.8281 7.06562 8.69687 9.19687C6.56562 11.3281 5.5 13.9292 5.5 17C5.5 20.0708 6.56562 22.6719 8.69687 24.8031C10.8281 26.9344 13.4292 28 16.5 28Z" fill="#3D318A"/>
</svg>