<svg width="24" height="24" viewBox="0 0 24 24" fill="none" xmlns="http://www.w3.org/2000/svg">
<path d="M16.5906 7.40926C16.1686 6.98745 15.5964 6.75049 14.9998 6.75049C14.4032 6.75049 13.831 6.98745 13.4091 7.40926L13.0603 7.75726L14.1208 8.81776L14.4696 8.46976C14.611 8.33314 14.8005 8.25754 14.9971 8.25925C15.1938 8.26096 15.3819 8.33984 15.5209 8.47889C15.66 8.61795 15.7389 8.80606 15.7406 9.00271C15.7423 9.19935 15.6667 9.38881 15.5301 9.53026L13.0603 12L14.1208 13.0605L16.5906 10.5908C17.0124 10.1688 17.2493 9.59663 17.2493 9.00001C17.2493 8.40339 17.0124 7.83119 16.5906 7.40926ZM9.53007 15.5303C9.38861 15.6669 9.19916 15.7425 9.00252 15.7408C8.80587 15.7391 8.61776 15.6602 8.4787 15.5211C8.33965 15.3821 8.26077 15.194 8.25906 14.9973C8.25735 14.8007 8.33295 14.6112 8.46957 14.4698L10.9393 12L9.87882 10.9395L7.40907 13.4093C7.19417 13.6168 7.02276 13.8651 6.90484 14.1396C6.78692 14.4141 6.72485 14.7094 6.72225 15.0081C6.71966 15.3069 6.77659 15.6031 6.88972 15.8797C7.00285 16.1562 7.16992 16.4074 7.38118 16.6186C7.59244 16.8299 7.84365 16.997 8.12017 17.1101C8.39669 17.2232 8.69297 17.2802 8.99172 17.2776C9.29047 17.275 9.58572 17.2129 9.86023 17.095C10.1347 16.9771 10.383 16.8057 10.5906 16.5908L10.9393 16.2428L9.87882 15.1823L9.53007 15.5303ZM10.5906 7.41001C10.1645 7.01008 9.59954 6.79161 9.01525 6.80083C8.43096 6.81004 7.87317 7.04621 7.45992 7.45937C7.04666 7.87253 6.81036 8.43026 6.80101 9.01455C6.79166 9.59883 7.00999 10.1638 7.40982 10.59L7.75782 10.9388L8.81832 9.87826L8.47032 9.52951C8.3337 9.38806 8.2581 9.1986 8.25981 9.00196C8.26152 8.80531 8.3404 8.6172 8.47945 8.47814C8.61851 8.33909 8.80662 8.26021 9.00327 8.2585C9.19991 8.25679 9.38937 8.33239 9.53082 8.46901L11.9998 10.9395L13.0603 9.87901L10.5906 7.41001Z" fill="#3D318A"/>
<path d="M16.5907 13.4093L16.2427 13.0605L15.1822 14.121L15.5302 14.4698C15.6668 14.6112 15.7424 14.8007 15.7407 14.9973C15.739 15.194 15.6601 15.3821 15.5211 15.5212C15.382 15.6602 15.1939 15.7391 14.9973 15.7408C14.8006 15.7425 14.6112 15.6669 14.4697 15.5303L12 13.0605L10.9395 14.121L13.4092 16.5908C13.8336 17.0007 14.4019 17.2274 14.9919 17.2223C15.5818 17.2172 16.1461 16.9806 16.5633 16.5634C16.9805 16.1462 17.2171 15.5819 17.2222 14.992C17.2273 14.402 17.0006 13.8337 16.5907 13.4093Z" fill="#3D318A"/>
<path d="M12 23.25C11.8672 23.2501 11.7367 23.2149 11.622 23.148L2.622 17.898C2.50877 17.8319 2.41483 17.7373 2.34956 17.6236C2.28429 17.5099 2.24996 17.3811 2.25 17.25V6.74998C2.24996 6.61888 2.28429 6.49005 2.34956 6.37636C2.41483 6.26266 2.50877 6.16805 2.622 6.10198L11.622 0.851978C11.7367 0.785032 11.8672 0.749756 12 0.749756C12.1328 0.749756 12.2633 0.785032 12.378 0.851978L21.378 6.10198L20.622 7.39798L12 2.36848L3.75 7.18048V16.8195L12 21.6322L20.25 16.8195V11.25H21.75V17.25C21.75 17.3811 21.7157 17.5099 21.6504 17.6236C21.5852 17.7373 21.4912 17.8319 21.378 17.898L12.378 23.148C12.2633 23.2149 12.1328 23.2501 12 23.25Z" fill="#3D318A"/>
</svg>
