<svg xmlns="http://www.w3.org/2000/svg" width="55" height="55" viewBox="0 0 55 55" fill="none">
<path d="M18.3333 20.6248H36.6667M18.3333 29.7915H32.0833M41.25 9.1665C43.0734 9.1665 44.822 9.89083 46.1114 11.1801C47.4007 12.4695 48.125 14.2181 48.125 16.0415V34.3748C48.125 36.1982 47.4007 37.9469 46.1114 39.2362C44.822 40.5255 43.0734 41.2498 41.25 41.2498H29.7917L18.3333 48.1248V41.2498H13.75C11.9266 41.2498 10.178 40.5255 8.88864 39.2362C7.59933 37.9469 6.875 36.1982 6.875 34.3748V16.0415C6.875 14.2181 7.59933 12.4695 8.88864 11.1801C10.178 9.89083 11.9266 9.1665 13.75 9.1665H41.25Z" stroke="#6A68C1" stroke-width="2" stroke-linecap="round" stroke-linejoin="round"/>
<ellipse cx="48" cy="41.5" rx="6" ry="6.5" fill="#3D318A"/>
</svg>