<svg xmlns="http://www.w3.org/2000/svg" width="24" height="26" viewBox="0 0 24 26" fill="none">
<path d="M9.68269 2.55991C9.86945 2.0983 10.1898 1.70298 10.6027 1.42462C11.0156 1.14627 11.5022 0.997559 12.0002 0.997559C12.4981 0.997559 12.9848 1.14627 13.3977 1.42462C13.8106 1.70298 14.1309 2.0983 14.3177 2.55991C16.1661 3.06826 17.7966 4.16935 18.9586 5.69407C20.1207 7.2188 20.7501 9.08283 20.7502 10.9999V16.8712L23.0402 20.3062C23.1658 20.4944 23.2379 20.7132 23.2489 20.9393C23.2599 21.1653 23.2093 21.3901 23.1025 21.5896C22.9958 21.7891 22.8368 21.956 22.6427 22.0722C22.4486 22.1885 22.2265 22.2499 22.0002 22.2499H16.3314C16.1809 23.2913 15.6603 24.2436 14.8648 24.9323C14.0694 25.6211 13.0524 26.0002 12.0002 26.0002C10.948 26.0002 9.93101 25.6211 9.13556 24.9323C8.34011 24.2436 7.81944 23.2913 7.66894 22.2499H2.00019C1.77388 22.2499 1.55182 22.1885 1.35768 22.0722C1.16354 21.956 1.00461 21.7891 0.897845 21.5896C0.791083 21.3901 0.740493 21.1653 0.751472 20.9393C0.762452 20.7132 0.834589 20.4944 0.960187 20.3062L3.25019 16.8712V10.9999C3.25019 6.9699 5.97519 3.57491 9.68269 2.55991ZM10.2327 22.2499C10.3618 22.6157 10.6012 22.9325 10.9178 23.1565C11.2345 23.3806 11.6129 23.5009 12.0008 23.5009C12.3887 23.5009 12.7671 23.3806 13.0838 23.1565C13.4005 22.9325 13.6398 22.6157 13.7689 22.2499H10.2314H10.2327ZM12.0002 4.74991C10.3426 4.74991 8.75287 5.40839 7.58077 6.58049C6.40867 7.75259 5.75019 9.3423 5.75019 10.9999V17.2499C5.75024 17.4968 5.67717 17.7382 5.54019 17.9437L4.33644 19.7499H19.6627L18.4589 17.9437C18.3224 17.7381 18.2498 17.4967 18.2502 17.2499V10.9999C18.2502 9.3423 17.5917 7.75259 16.4196 6.58049C15.2475 5.40839 13.6578 4.74991 12.0002 4.74991Z" fill="#3D318A"/>
</svg>