<svg xmlns="http://www.w3.org/2000/svg" width="33" height="34" viewBox="0 0 33 34" fill="none">
<path fill-rule="evenodd" clip-rule="evenodd" d="M22.5 12.5C22.5 14.0913 21.8679 15.6174 20.7426 16.7426C19.6174 17.8679 18.0913 18.5 16.5 18.5C14.9087 18.5 13.3826 17.8679 12.2574 16.7426C11.1321 15.6174 10.5 14.0913 10.5 12.5C10.5 10.9087 11.1321 9.38258 12.2574 8.25736C13.3826 7.13214 14.9087 6.5 16.5 6.5C18.0913 6.5 19.6174 7.13214 20.7426 8.25736C21.8679 9.38258 22.5 10.9087 22.5 12.5ZM19.5 12.5C19.5 13.2956 19.1839 14.0587 18.6213 14.6213C18.0587 15.1839 17.2956 15.5 16.5 15.5C15.7044 15.5 14.9413 15.1839 14.3787 14.6213C13.8161 14.0587 13.5 13.2956 13.5 12.5C13.5 11.7044 13.8161 10.9413 14.3787 10.3787C14.9413 9.81607 15.7044 9.5 16.5 9.5C17.2956 9.5 18.0587 9.81607 18.6213 10.3787C19.1839 10.9413 19.5 11.7044 19.5 12.5Z" fill="#3D318A"/>
<path fill-rule="evenodd" clip-rule="evenodd" d="M16.5 0.5C7.3875 0.5 0 7.8875 0 17C0 26.1125 7.3875 33.5 16.5 33.5C25.6125 33.5 33 26.1125 33 17C33 7.8875 25.6125 0.5 16.5 0.5ZM3 17C3 20.135 4.0695 23.021 5.862 25.313C7.12085 23.6598 8.74485 22.3201 10.6071 21.3985C12.4694 20.4768 14.5196 19.9982 16.5975 20C18.6485 19.9981 20.6729 20.4643 22.5164 21.3632C24.3599 22.2621 25.9739 23.5699 27.2355 25.187C28.5352 23.4824 29.4103 21.4928 29.7883 19.3829C30.1664 17.2729 30.0366 15.1033 29.4097 13.0535C28.7828 11.0037 27.6768 9.13257 26.1832 7.59506C24.6896 6.05754 22.8514 4.89779 20.8206 4.21176C18.7898 3.52574 16.6248 3.33316 14.5048 3.64996C12.3848 3.96676 10.3707 4.78384 8.62915 6.03358C6.88762 7.28332 5.46872 8.92981 4.48984 10.8368C3.51097 12.7438 3.00027 14.8565 3 17ZM16.5 30.5C13.4009 30.5047 10.3954 29.4385 7.992 27.482C8.9594 26.0971 10.247 24.9664 11.7453 24.186C13.2436 23.4057 14.9082 22.9988 16.5975 23C18.2657 22.9987 19.9102 23.3954 21.3944 24.1571C22.8785 24.9189 24.1595 26.0238 25.131 27.38C22.7089 29.4001 19.6539 30.5044 16.5 30.5Z" fill="#3D318A"/>
</svg>