<svg width="55" height="58" viewBox="0 0 55 58" fill="none" xmlns="http://www.w3.org/2000/svg">
<circle cx="27.5" cy="27.5" r="27.5" fill="#827BA9"/>
<g clip-path="url(#clip0_465_5157)">
<path d="M28.0002 11.7243L32.8332 21.7469L43.8233 23.3804L35.8634 31.3201L36.1312 32.9131L37.723 42.4109L27.9986 37.1802L18.2746 42.4132L19.867 32.9131L20.1336 31.3201L12.1765 23.3793L23.1661 21.7458L23.8883 20.2501L28.0002 11.7243ZM27.9996 9.54688C26.9922 9.54688 26.0736 10.1156 25.645 11.0043L21.5702 19.4643L12.1939 20.8588C11.2309 21.0028 10.4311 21.6603 10.1206 22.5598C9.81058 23.462 10.0451 24.4548 10.7252 25.1315L17.595 31.994L16.0015 41.5092C15.8411 42.4683 16.2557 43.4296 17.0691 43.9904C17.5163 44.2976 18.0416 44.4528 18.5676 44.4528C19.0007 44.4528 19.4338 44.3477 19.8259 44.1372L27.9996 39.7362L36.1739 44.1372C36.5608 44.3443 36.9928 44.4527 37.4316 44.4528C37.9576 44.4528 38.483 44.2976 38.9313 43.9904C39.7435 43.4296 40.1586 42.4683 39.9972 41.5092L38.4031 31.994L45.2762 25.1315C45.9563 24.4548 46.1892 23.4614 45.8792 22.5598C45.5682 21.6592 44.7683 21.0016 43.8059 20.8587L34.4312 19.4643L30.3542 11.0043C29.9284 10.1144 29.0093 9.54688 27.9996 9.54688Z" fill="#F5E2E8" fill-opacity="0.5"/>
</g>
<ellipse cx="49" cy="51.5" rx="6" ry="6.5" fill="#3D318A"/>
<defs>
<clipPath id="clip0_465_5157">
<rect width="36" height="36" fill="white" transform="translate(10 9)"/>
</clipPath>
</defs>
</svg>
