<svg xmlns="http://www.w3.org/2000/svg" width="19" height="19" viewBox="0 0 19 19" fill="none">
<path d="M6.95 12.9C7.19083 12.9 7.39285 12.8184 7.55605 12.6552C7.71925 12.492 7.80057 12.2903 7.8 12.05V6.95C7.8 6.70917 7.7184 6.50715 7.5552 6.34395C7.392 6.18075 7.19027 6.09943 6.95 6.1C6.70917 6.1 6.50715 6.1816 6.34395 6.3448C6.18075 6.508 6.09943 6.70973 6.1 6.95V12.05C6.1 12.2908 6.1816 12.4928 6.3448 12.656C6.508 12.8192 6.70973 12.9006 6.95 12.9ZM10.4987 12.2412L13.8137 10.0312C14.0121 9.90375 14.1112 9.72667 14.1112 9.5C14.1112 9.27333 14.0121 9.09625 13.8137 8.96875L10.4987 6.75875C10.2862 6.61708 10.0667 6.60632 9.84 6.72645C9.61333 6.84658 9.5 7.03443 9.5 7.29V11.71C9.5 11.965 9.61333 12.1528 9.84 12.2735C10.0667 12.3942 10.2862 12.3835 10.4987 12.2412ZM9.5 18C8.32417 18 7.21917 17.7767 6.185 17.3302C5.15083 16.8837 4.25125 16.2782 3.48625 15.5137C2.72125 14.7487 2.11577 13.8492 1.6698 12.815C1.22383 11.7808 1.00057 10.6758 1 9.5C1 8.32417 1.22327 7.21917 1.6698 6.185C2.11633 5.15083 2.72182 4.25125 3.48625 3.48625C4.25125 2.72125 5.15083 2.11577 6.185 1.6698C7.21917 1.22383 8.32417 1.00057 9.5 1C10.6758 1 11.7808 1.22327 12.815 1.6698C13.8492 2.11633 14.7487 2.72182 15.5137 3.48625C16.2787 4.25125 16.8845 5.15083 17.331 6.185C17.7776 7.21917 18.0006 8.32417 18 9.5C18 10.6758 17.7767 11.7808 17.3302 12.815C16.8837 13.8492 16.2782 14.7487 15.5137 15.5137C14.7487 16.2787 13.8492 16.8845 12.815 17.331C11.7808 17.7776 10.6758 18.0006 9.5 18ZM9.5 16.3C11.3983 16.3 13.0062 15.6412 14.3237 14.3237C15.6412 13.0062 16.3 11.3983 16.3 9.5C16.3 7.60167 15.6412 5.99375 14.3237 4.67625C13.0062 3.35875 11.3983 2.7 9.5 2.7C7.60167 2.7 5.99375 3.35875 4.67625 4.67625C3.35875 5.99375 2.7 7.60167 2.7 9.5C2.7 11.3983 3.35875 13.0062 4.67625 14.3237C5.99375 15.6412 7.60167 16.3 9.5 16.3Z" fill="#3D318A" fill-opacity="0.5"/>
</svg>