<svg xmlns="http://www.w3.org/2000/svg" width="19" height="19" viewBox="0 0 19 19" fill="none">
  <g clip-path="url(#clip0_266_3175)">
    <path d="M7.12484 11.8748V7.1248H11.8748V11.8748H7.12484ZM9.49984 18.2081C8.07484 18.2081 6.73877 17.8814 5.49163 17.2281C4.24449 16.5747 3.20556 15.6611 2.37484 14.4873V16.6248H0.791504V11.8748H5.5415V13.4581H3.60192C4.27484 14.4477 5.12931 15.223 6.16534 15.7841C7.20137 16.3451 8.31287 16.6253 9.49984 16.6248C11.0172 16.6248 12.3929 16.1894 13.6268 15.3186C14.8607 14.4477 15.7281 13.2932 16.229 11.855L17.7728 12.2113C17.179 14.0057 16.1234 15.4539 14.6061 16.5559C13.0887 17.6579 11.3866 18.2087 9.49984 18.2081ZM0.831087 8.70814C0.923448 7.82411 1.13456 6.97624 1.46442 6.16451C1.79428 5.35279 2.24949 4.60414 2.83005 3.91855L3.95817 5.04668C3.53595 5.58765 3.19289 6.16504 2.929 6.77885C2.66512 7.39265 2.50018 8.03575 2.43421 8.70814H0.831087ZM5.0665 3.93835L3.93838 2.81022C4.63768 2.22967 5.38977 1.77103 6.19463 1.4343C6.99949 1.09758 7.83734 0.896499 8.70817 0.831055V2.41439C8.03525 2.48036 7.39532 2.64529 6.78838 2.90918C6.18143 3.17307 5.60748 3.51612 5.0665 3.93835ZM13.953 3.93835C13.412 3.51612 12.8349 3.17307 12.2216 2.90918C11.6083 2.64529 10.9649 2.48036 10.2915 2.41439V0.831055C11.1755 0.910221 12.0234 1.11474 12.8351 1.4446C13.6469 1.77446 14.3955 2.22967 15.0811 2.81022L13.953 3.93835ZM16.5853 8.70814C16.5193 8.03522 16.3544 7.39186 16.0905 6.77805C15.8266 6.16425 15.4835 5.58712 15.0613 5.04668L16.1894 3.91855C16.77 4.60467 17.2252 5.35358 17.555 6.1653C17.8849 6.97703 18.0894 7.82464 18.1686 8.70814H16.5853Z" fill="#3D318A"/>
  </g>
  <defs>
    <clipPath id="clip0_266_3175">
      <rect width="19" height="19" fill="white"/>
    </clipPath>
  </defs>
</svg>