<svg width="50" height="50" viewBox="0 0 50 50" fill="none" xmlns="http://www.w3.org/2000/svg">
<path d="M41.6668 4.16675H20.8335C19.1759 4.16675 17.5862 4.82523 16.4141 5.99733C15.242 7.16943 14.5835 8.75915 14.5835 10.4167V25.0001C14.5835 26.6577 15.242 28.2474 16.4141 29.4195C17.5862 30.5916 19.1759 31.2501 20.8335 31.2501H41.6668C43.3244 31.2501 44.9141 30.5916 46.0862 29.4195C47.2583 28.2474 47.9168 26.6577 47.9168 25.0001V10.4167C47.9168 8.75915 47.2583 7.16943 46.0862 5.99733C44.9141 4.82523 43.3244 4.16675 41.6668 4.16675ZM43.7502 25.0001C43.7502 25.5526 43.5307 26.0825 43.14 26.4732C42.7493 26.8639 42.2194 27.0834 41.6668 27.0834H20.8335C20.281 27.0834 19.7511 26.8639 19.3604 26.4732C18.9697 26.0825 18.7502 25.5526 18.7502 25.0001V10.4167C18.7502 9.86421 18.9697 9.33431 19.3604 8.94361C19.7511 8.55291 20.281 8.33342 20.8335 8.33342H41.6668C42.2194 8.33342 42.7493 8.55291 43.14 8.94361C43.5307 9.33431 43.7502 9.86421 43.7502 10.4167V25.0001ZM36.4585 16.6667C35.6872 16.6694 34.9446 16.959 34.3752 17.4792C33.9272 17.0721 33.3706 16.8038 32.773 16.707C32.1754 16.6102 31.5625 16.689 31.0089 16.9339C30.4553 17.1789 29.9847 17.5794 29.6544 18.0867C29.3241 18.594 29.1483 19.1864 29.1483 19.7917C29.1483 20.3971 29.3241 20.9895 29.6544 21.4968C29.9847 22.0041 30.4553 22.4046 31.0089 22.6495C31.5625 22.8945 32.1754 22.9733 32.773 22.8765C33.3706 22.7797 33.9272 22.5114 34.3752 22.1042C34.7514 22.4462 35.2053 22.6912 35.6977 22.818C36.19 22.9447 36.7058 22.9495 37.2004 22.8318C37.695 22.7141 38.1534 22.4776 38.5358 22.1426C38.9183 21.8077 39.2132 21.3845 39.3951 20.9098C39.577 20.435 39.6404 19.9231 39.5796 19.4183C39.5189 18.9136 39.3359 18.4313 39.0466 18.0132C38.7573 17.5952 38.3703 17.2541 37.9193 17.0194C37.4683 16.7848 36.9669 16.6637 36.4585 16.6667ZM33.3335 35.4168C32.781 35.4168 32.2511 35.6362 31.8604 36.0269C31.4697 36.4176 31.2502 36.9475 31.2502 37.5001V39.5834C31.2502 40.136 31.0307 40.6659 30.64 41.0566C30.2493 41.4473 29.7194 41.6668 29.1668 41.6668H8.3335C7.78096 41.6668 7.25106 41.4473 6.86036 41.0566C6.46966 40.6659 6.25016 40.136 6.25016 39.5834V31.2501H8.3335C8.88603 31.2501 9.41593 31.0306 9.80663 30.6399C10.1973 30.2492 10.4168 29.7193 10.4168 29.1667C10.4168 28.6142 10.1973 28.0843 9.80663 27.6936C9.41593 27.3029 8.88603 27.0834 8.3335 27.0834H6.25016V25.0001C6.25016 24.4475 6.46966 23.9176 6.86036 23.5269C7.25106 23.1362 7.78096 22.9167 8.3335 22.9167C8.88603 22.9167 9.41593 22.6973 9.80663 22.3066C10.1973 21.9159 10.4168 21.386 10.4168 20.8334C10.4168 20.2809 10.1973 19.751 9.80663 19.3603C9.41593 18.9696 8.88603 18.7501 8.3335 18.7501C6.67589 18.7501 5.08618 19.4086 3.91408 20.5807C2.74198 21.7528 2.0835 23.3425 2.0835 25.0001V39.5834C2.0835 41.241 2.74198 42.8307 3.91408 44.0028C5.08618 45.1749 6.67589 45.8334 8.3335 45.8334H29.1668C30.8244 45.8334 32.4141 45.1749 33.5862 44.0028C34.7583 42.8307 35.4168 41.241 35.4168 39.5834V37.5001C35.4168 36.9475 35.1973 36.4176 34.8066 36.0269C34.4159 35.6362 33.886 35.4168 33.3335 35.4168ZM12.5002 37.5001H14.5835C15.136 37.5001 15.6659 37.2806 16.0566 36.8899C16.4473 36.4992 16.6668 35.9693 16.6668 35.4168C16.6668 34.8642 16.4473 34.3343 16.0566 33.9436C15.6659 33.5529 15.136 33.3334 14.5835 33.3334H12.5002C11.9476 33.3334 11.4177 33.5529 11.027 33.9436C10.6363 34.3343 10.4168 34.8642 10.4168 35.4168C10.4168 35.9693 10.6363 36.4992 11.027 36.8899C11.4177 37.2806 11.9476 37.5001 12.5002 37.5001Z" fill="#827BA9"/>
</svg>
